<svg xmlns="http://www.w3.org/2000/svg" viewBox="221 330 574 350" fill="currentColor" role="img" aria-label="StreetNet">
<g transform="translate(0,1024) scale(0.1,-0.1)">
<path d="M3910 6690 c-197 -22 -352 -115 -417 -249 -49 -101 -40 -236 24 -356
23 -42 131 -145 153 -145 5 0 10 -4 10 -9 0 -5 10 -13 23 -17 12 -4 24 -10 27
-13 8 -11 194 -101 208 -101 6 0 12 -4 12 -10 0 -5 7 -10 15 -10 14 0 86 -30
95 -41 3 -3 28 -13 55 -24 53 -20 169 -70 197 -85 10 -6 22 -10 27 -10 5 0 40
-14 78 -31 37 -17 82 -37 100 -45 17 -8 36 -14 42 -14 6 0 11 -4 11 -10 0 -5
5 -10 10 -10 27 0 255 -122 341 -182 77 -54 253 -239 268 -282 2 -6 7 -13 11
-16 30 -24 111 -192 149 -312 57 -181 64 -587 12 -738 -5 -14 -16 -52 -26 -85
-9 -33 -20 -67 -24 -75 -5 -9 -12 -30 -15 -48 -4 -17 -12 -34 -17 -37 -5 -4
-9 -15 -9 -26 0 -37 1134 -26 1185 11 6 4 25 11 43 15 17 3 32 10 32 15 0 4
10 11 23 14 44 12 148 109 194 182 20 32 53 106 53 120 0 7 4 15 9 18 5 3 12
26 15 51 4 24 11 47 15 50 5 2 12 21 16 41 3 20 10 44 15 53 4 9 16 39 25 66
9 28 20 59 25 70 5 11 23 63 40 115 17 52 36 104 41 115 21 46 69 190 69 207
0 10 3 18 8 18 4 0 12 19 18 43 12 46 49 153 71 204 7 17 13 37 13 45 0 8 4
18 8 23 5 6 17 37 27 70 11 33 22 65 26 70 4 6 10 26 14 45 4 19 11 41 16 50
4 8 22 58 39 110 17 52 35 102 39 110 5 9 12 31 16 50 4 19 10 40 14 45 4 6
16 37 26 70 11 33 22 65 26 70 4 6 10 26 14 45 4 19 11 41 16 50 17 31 39 93
39 111 0 11 4 19 9 19 5 0 12 17 16 38 4 20 10 42 14 47 4 6 15 35 25 65 10
30 21 64 26 75 5 11 18 47 29 80 11 33 32 91 46 129 14 38 25 77 25 87 0 11 5
19 10 19 6 0 10 14 10 30 l0 30 -512 -1 c-282 0 -535 -4 -563 -9 -65 -11 -149
-32 -155 -39 -3 -4 -23 -15 -45 -26 -45 -23 -175 -143 -175 -162 0 -7 -4 -13
-9 -13 -5 0 -13 -10 -17 -22 -4 -13 -10 -25 -13 -28 -6 -5 -29 -57 -47 -105
-52 -146 -87 -246 -95 -275 -6 -19 -14 -44 -19 -55 -5 -11 -16 -42 -25 -70 -9
-27 -20 -57 -25 -65 -4 -9 -11 -31 -15 -50 -4 -19 -11 -39 -15 -45 -4 -5 -11
-26 -15 -45 -4 -19 -11 -41 -15 -50 -5 -8 -16 -42 -26 -75 -10 -33 -21 -64
-25 -70 -4 -5 -10 -25 -14 -43 -5 -27 -30 -87 -41 -101 -5 -6 -34 27 -34 38 0
5 -6 16 -12 23 -7 8 -18 23 -25 33 -7 11 -33 54 -59 95 -25 41 -50 77 -55 78
-5 2 -9 10 -9 17 0 8 -6 20 -12 27 -19 20 -38 50 -44 71 -4 9 -10 17 -14 17
-5 0 -12 10 -16 23 -8 27 -85 151 -96 155 -4 2 -8 8 -8 12 0 9 -59 101 -71
110 -3 3 -9 15 -13 28 -4 12 -11 22 -16 22 -4 0 -10 8 -14 18 -6 20 -25 50
-43 70 -7 7 -13 20 -13 28 0 8 -4 14 -10 14 -5 0 -10 4 -10 9 0 5 -25 46 -55
91 -30 45 -55 86 -55 91 0 5 -4 9 -9 9 -5 0 -13 10 -17 22 -3 12 -13 28 -20
36 -8 7 -14 20 -14 28 0 8 -3 14 -8 14 -4 0 -16 17 -27 38 -11 20 -22 39 -25
42 -3 3 -18 24 -33 48 l-27 42 -503 -2 c-276 0 -531 -4 -567 -8z"/>
<path d="M2894 4973 c-7 -16 -26 -71 -44 -123 -17 -52 -35 -102 -39 -110 -5
-9 -12 -31 -16 -50 -4 -19 -11 -41 -15 -50 -5 -8 -22 -58 -40 -110 -17 -52
-35 -104 -40 -115 -4 -11 -16 -48 -27 -82 -10 -35 -21 -63 -25 -63 -5 0 -8 -8
-8 -17 0 -17 -60 -199 -72 -219 -3 -5 -9 -25 -13 -44 -4 -19 -11 -41 -16 -50
-4 -8 -22 -58 -39 -110 -17 -52 -35 -102 -40 -111 -5 -9 -6 -20 -3 -23 4 -3
244 -6 535 -6 496 0 644 6 688 29 9 5 30 12 48 15 17 4 34 12 37 17 4 5 13 9
21 9 17 0 129 82 158 115 19 22 42 63 77 139 19 39 20 299 2 318 -7 6 -13 19
-13 28 0 34 -163 230 -191 230 -4 0 -14 6 -21 13 -20 18 -50 37 -70 43 -10 4
-18 10 -18 15 0 5 -5 9 -11 9 -11 0 -49 16 -234 100 -38 17 -88 40 -110 50
-22 10 -58 26 -80 35 -22 9 -48 20 -57 25 -10 6 -22 10 -27 10 -5 0 -39 14
-74 30 -36 17 -69 30 -74 30 -5 0 -33 11 -61 25 -65 32 -75 31 -88 -2z"/>
</g>
</svg>
